<mxfile host="app.diagrams.net" modified="2023-11-07T17:08:47.144Z" agent="Mozilla/5.0 (X11; Linux x86_64) AppleWebKit/537.36 (KHTML, like Gecko) Chrome/118.0.0.0 Safari/537.36" version="22.0.8" etag="7lsGp7u9jH_OEWT4k5ks" type="github">
  <diagram name="Page-1" id="z0ywiU-_tax77t4hVC5_">
    <mxGraphModel>
      <root>
        <mxCell id="0" />
        <mxCell id="1" parent="0" />
      </root>
    </mxGraphModel>
  </diagram>
</mxfile>
